<svg xmlns="http://www.w3.org/2000/svg" viewBox="0 0 800 600">
  <g id="regions">
    <path id="1" d="M100,100 L200,100 L200,200 L100,200 Z" fill="#f00" />
    <path id="2" d="M200,100 L300,100 L300,200 L200,200 Z" fill="#0f0" />
    <path id="3" d="M100,200 L200,200 L200,300 L100,300 Z" fill="#00f" />
    <path id="4" d="M200,200 L300,200 L300,300 L200,300 Z" fill="#ff0" />
    <path id="5" d="M300,100 L400,100 L400,200 L300,200 Z" fill="#0ff" />
    <path id="6" d="M300,200 L400,200 L400,300 L300,300 Z" fill="#f0f" />
    <path id="7" d="M400,100 L500,100 L500,200 L400,200 Z" fill="#f90" />
    <path id="8" d="M400,200 L500,200 L500,300 L400,300 Z" fill="#90f" />
    <path id="9" d="M500,100 L600,100 L600,200 L500,200 Z" fill="#0f0" />
    <path id="10" d="M500,200 L600,200 L600,300 L500,300 Z" fill="#f00" />
    <path id="11" d="M600,100 L700,100 L700,200 L600,200 Z" fill="#00f" />
    <path id="12" d="M600,200 L700,200 L700,300 L600,300 Z" fill="#ff0" />
    <path id="13" d="M100,300 L200,300 L200,400 L100,400 Z" fill="#0ff" />
    <path id="14" d="M200,300 L300,300 L300,400 L200,400 Z" fill="#f0f" />
  </g>
</svg>